<svg xmlns="http://www.w3.org/2000/svg" fill="none" viewBox="0 0 235 235"><path fill="#b7ef87" d="M171.161 234.598v.401H63.838v-.401zm63.437-63.437V63.835C234.598 28.8 206.196.4 171.161.4H63.835C28.8.4.4 28.803.4 63.838v107.323c0 35.035 28.402 63.437 63.437 63.437v.401l-1.648-.021C27.695 234.105 0 205.866 0 171.161V63.838C0 28.583 28.58.001 63.835 0H171.16c35.255 0 63.837 28.58 63.838 63.835V171.16l-.021 1.648c-.86 33.947-28.222 61.309-62.169 62.169l-1.648.021v-.401c35.035 0 63.437-28.402 63.437-63.437"/><path fill="#b7ef87" d="M0 63.837C0 28.58 28.58 0 63.837 0h107.325c35.256 0 63.837 28.58 63.837 63.837v107.325c0 35.256-28.581 63.837-63.837 63.837H63.837C28.58 234.999 0 206.418 0 171.162z"/><path fill="#1e3c47" d="M43.01 80.26a4.23 4.23 0 0 1 4.022 2.918l13.01 39.84c.644 1.973 3.45 1.934 4.04-.057l11.739-39.67a4.23 4.23 0 0 1 4.057-3.03h6.367a4.23 4.23 0 0 1 4.054 3.02l11.876 39.746c.594 1.986 3.394 2.022 4.038.052l13.04-39.902a4.23 4.23 0 0 1 4.021-2.916h5.916c2.887 0 4.926 2.828 4.014 5.567L111.573 150.8a4.23 4.23 0 0 1-4.014 2.895h-6.987a4.23 4.23 0 0 1-4.049-3.005l-9.367-30.929c-1.213-4.006-6.885-4.005-8.098.001l-9.365 30.928a4.23 4.23 0 0 1-4.049 3.005h-6.986a4.23 4.23 0 0 1-4.014-2.895L33.016 85.828c-.912-2.74 1.127-5.567 4.014-5.567z"/><path fill="#1e3c47" fill-rule="evenodd" d="M169.508 79.57c8.29 0 14.598 2.263 19.342 5.82 4.72 3.54 7.755 8.256 9.709 12.956 3.881 9.341 3.628 18.981 3.629 20.305v.012c-.007 1.275.018.77-.111 2.038a5.38 5.38 0 0 1-5.352 4.846h-39.526c-2.983 0-5.341 2.701-4.272 5.485.893 2.322 2.075 4.126 3.489 5.519 3.329 3.277 8.359 4.705 15.305 4.705h.071l.035.003h.006c7.877.425 15.07-.781 22.065-4.42 1.644-.924 3.675.264 3.675 2.151v6.794a6.33 6.33 0 0 1-3.675 5.748c-8.052 3.546-14.353 4.099-23.15 3.845-7.446-.003-15.93-1.547-22.574-7.092-6.722-5.611-11.187-14.999-11.187-29.861 0-3.591-.307-13.245 3.567-21.99 1.958-4.418 5.01-8.668 9.737-11.803 4.639-3.076 10.749-4.98 18.735-5.052a.1.1 0 0 0 .025-.005.1.1 0 0 1 .026-.005zm-.009 13.614c-6.483 0-10.883 1.623-13.767 5.224-1.673 2.089-2.947 4.977-3.743 8.896-.567 2.79 1.719 5.237 4.567 5.237h25.765c2.851 0 5.129-2.458 4.418-5.219-.402-1.562-.966-3.218-1.755-4.825-1.222-2.489-2.954-4.8-5.398-6.489-2.426-1.676-5.673-2.824-10.087-2.824" clip-rule="evenodd"/></svg>