<svg xmlns="http://www.w3.org/2000/svg" fill="none" viewBox="0 0 16 16"><path fill="#b7ef87" d="M11.654 15.973V16H4.345v-.027zm4.319-4.32V4.346a4.32 4.32 0 0 0-4.32-4.319H4.346a4.32 4.32 0 0 0-4.319 4.32v7.306a4.32 4.32 0 0 0 4.32 4.32V16l-.113-.002A4.346 4.346 0 0 1 0 11.654V4.345C0 1.946 1.946 0 4.346 0h7.307C14.054 0 16 1.946 16 4.346v7.307l-.002.113a4.346 4.346 0 0 1-4.232 4.233h-.113v-.026a4.32 4.32 0 0 0 4.32-4.32"/><path fill="#b7ef87" d="M0 4.346C0 1.946 1.946 0 4.346 0h7.308C14.054 0 16 1.946 16 4.346v7.308c0 2.4-1.946 4.346-4.346 4.346H4.346A4.346 4.346 0 0 1 0 11.654z"/><path fill="#1e3c47" d="M2.928 5.465c.125 0 .235.08.274.198l.886 2.713a.144.144 0 0 0 .275-.004l.8-2.701a.29.29 0 0 1 .275-.206h.434c.127 0 .24.083.276.205l.809 2.706c.04.136.23.138.274.004l.888-2.717a.29.29 0 0 1 .274-.198h.403c.196 0 .335.192.273.379l-1.473 4.423a.29.29 0 0 1-.273.197h-.476a.29.29 0 0 1-.275-.204l-.638-2.106a.288.288 0 0 0-.551 0l-.638 2.106a.29.29 0 0 1-.276.204h-.475a.29.29 0 0 1-.274-.197L2.248 5.844a.288.288 0 0 1 .273-.38z"/><path fill="#1e3c47" fill-rule="evenodd" d="M11.541 5.417c.564 0 .994.155 1.317.397.321.24.528.562.66.882.265.636.248 1.292.248 1.382v.001c0 .087.001.053-.008.139a.366.366 0 0 1-.364.33h-2.691c-.203 0-.364.184-.29.373q.09.235.237.376c.226.223.569.32 1.042.32h.007c.537.03 1.026-.053 1.502-.3a.168.168 0 0 1 .25.146v.463c0 .168-.097.32-.25.391-.548.242-.977.28-1.576.262-.507 0-1.084-.105-1.537-.483-.457-.382-.761-1.021-.761-2.033 0-.245-.021-.902.243-1.497.133-.301.34-.59.662-.804.316-.21.732-.339 1.276-.344h.033m0 .927c-.442 0-.742.111-.938.356-.114.142-.2.339-.255.606-.038.19.117.356.311.356h1.754c.194 0 .35-.167.301-.355a1.7 1.7 0 0 0-.12-.328 1.13 1.13 0 0 0-.367-.442 1.17 1.17 0 0 0-.687-.193" clip-rule="evenodd"/></svg>